<?xml version="1.0" encoding="UTF-8"?>
<svg width="28.5px" height="30px" version="1.1" xmlns="http://www.w3.org/2000/svg" xmlns:xlink="http://www.w3.org/1999/xlink">
    <!-- Generator: Sketch 52.2 (67145) - http://www.bohemiancoding.com/sketch -->
    <title>icon support</title>
    <desc>Created with Sketch.</desc>
    <g id="#More" stroke="none" stroke-width="1" fill="none" fill-rule="evenodd">
        <g id="Signup---Help" transform="translate(-1174.000000, -449.000000)">
            <g id="icon-support" transform="translate(1174.000000, 449.000000)">
                <g id="Group-15">
                    <path d="M27.6004249,7.09241237 C27.235038,6.62438618 26.7913665,6.2449596 26.2783221,5.96364333 L16.4383894,0.56106938 C15.0732999,-0.188273083 13.3796943,-0.18660454 12.0161775,0.563572194 L2.21661036,5.96197479 C1.65236638,6.27282426 1.16099009,6.71048298 0.784769186,7.23607388 L0.30807127,8.09754241 C0.103622384,8.59410067 0,9.10717751 0,9.62576053 L0,20.4100516 C0,21.9177467 0.849423962,23.3216584 2.21661036,24.0735037 L12.0161775,29.4724068 C12.532542,29.7567265 13.1027272,29.9334252 13.7155496,29.9991657 L14.7355224,30 C15.3488691,29.9354274 15.9204522,29.7592293 16.4383894,29.4749097 L26.2783221,24.0723357 C27.6484791,23.3199899 28.5,21.9147433 28.5,20.4055466 L28.5,9.6302656 C28.5,9.04961279 28.3708652,8.47980551 28.1160904,7.93285725 L27.6004249,7.09241237 Z" id="Fill-1" fill="#FFC100"></path>
                    <path d="M14.7705,18.522 C14.5494989,18.522 14.3707507,18.4440008 14.23425,18.288 C14.0977493,18.1319992 14.0295,17.9175014 14.0295,17.6445 C14.0295,16.9294964 14.1594987,16.3250025 14.4195,15.831 C14.6795013,15.3369975 15.0564975,14.7975029 15.5505,14.2125 C15.940502,13.7444977 16.2264991,13.3545016 16.4085,13.0425 C16.5905009,12.7304984 16.6815,12.379502 16.6815,11.9895 C16.6815,11.5604979 16.5222516,11.2192513 16.20375,10.96575 C15.8852484,10.7122487 15.4530027,10.5855 14.907,10.5855 C14.4389977,10.5855 13.9905021,10.686249 13.5615,10.88775 C13.1324979,11.089251 12.6320029,11.3784981 12.06,11.7555 C11.7349984,11.9375009 11.468501,12.0285 11.2605,12.0285 C11.0394989,12.0285 10.8477508,11.927751 10.68525,11.72625 C10.5227492,11.524749 10.4415,11.2875014 10.4415,11.0145 C10.4415,10.6374981 10.5974984,10.3320012 10.9095,10.098 C11.4555027,9.62999766 12.0989963,9.26275133 12.84,8.99625 C13.5810037,8.72974867 14.3284962,8.5965 15.0825,8.5965 C15.875504,8.5965 16.5807469,8.73299864 17.19825,9.006 C17.8157531,9.27900137 18.2967483,9.6559976 18.64125,10.137 C18.9857517,10.6180024 19.158,11.1704969 19.158,11.7945 C19.158,12.4705034 18.9955016,13.0587475 18.6705,13.55925 C18.3454984,14.0597525 17.8710031,14.6219969 17.247,15.246 C16.7139973,15.7920027 16.3142513,16.2502481 16.04775,16.62075 C15.7812487,16.9912519 15.6155003,17.4104977 15.5505,17.8785 C15.5114998,18.086501 15.4237507,18.2457494 15.28725,18.35625 C15.1507493,18.4667506 14.978501,18.522 14.7705,18.522 Z M14.8095,22.617 C14.3934979,22.617 14.0490014,22.4772514 13.776,22.19775 C13.5029986,21.9182486 13.3665,21.5705021 13.3665,21.1545 C13.3665,20.7384979 13.5029986,20.3907514 13.776,20.11125 C14.0490014,19.8317486 14.3934979,19.692 14.8095,19.692 C15.2255021,19.692 15.5699986,19.8317486 15.843,20.11125 C16.1160014,20.3907514 16.2525,20.7384979 16.2525,21.1545 C16.2525,21.5705021 16.1127514,21.9182486 15.83325,22.19775 C15.5537486,22.4772514 15.212502,22.617 14.8095,22.617 Z" id="?" fill="#FFFFFF"></path>
                </g>
            </g>
        </g>
    </g>
</svg>