<?xml version="1.0" encoding="iso-8859-1"?>
<!-- Generator: Adobe Illustrator 18.0.0, SVG Export Plug-In . SVG Version: 6.00 Build 0)  -->
<!DOCTYPE svg PUBLIC "-//W3C//DTD SVG 1.1//EN" "http://www.w3.org/Graphics/SVG/1.1/DTD/svg11.dtd">
<svg version="1.1" id="Capa_1" xmlns="http://www.w3.org/2000/svg" xmlns:xlink="http://www.w3.org/1999/xlink" x="0px" y="0px"
	 viewBox="0 0 407.5 407.5" style="enable-background:new 0 0 407.5 407.5;" xml:space="preserve">
<g>
	<g>
		<path style="fill:#AF91E8;" d="M161.25,123v207.5c0,18.2-14.8,33-33,33s-33-14.8-33-33V296c0-5.8,4.7-10.5,10.5-10.5
			s10.5,4.7,10.5,10.5v34.5c0,6.62,5.38,12,12,12s12-5.38,12-12V123c0-5.8,4.7-10.5,10.5-10.5S161.25,117.2,161.25,123z"/>
		<path style="fill:#AF91E8;" d="M312.25,296v34.5c0,18.2-14.8,33-33,33s-33-14.8-33-33V123c0-5.8,4.7-10.5,10.5-10.5
			s10.5,4.7,10.5,10.5v207.5c0,6.62,5.38,12,12,12s12-5.38,12-12V296c0-5.8,4.7-10.5,10.5-10.5S312.25,290.2,312.25,296z"/>
		<path style="fill:#AF91E8;" d="M196.58,167v230c0,5.8-4.7,10.5-10.5,10.5c-5.8,0-10.5-4.7-10.5-10.5V167c0-5.8,4.7-10.5,10.5-10.5
			C191.88,156.5,196.58,161.2,196.58,167z"/>
		<path style="fill:#AF91E8;" d="M231.92,167v230c0,5.8-4.7,10.5-10.5,10.5c-5.8,0-10.5-4.7-10.5-10.5V167c0-5.8,4.7-10.5,10.5-10.5
			C227.22,156.5,231.92,161.2,231.92,167z"/>
	</g>
	<path style="fill:#8369C4;" d="M96.492,181.102c0,6.719,8.4,9.808,12.719,4.661c3.599-4.288,6.935-8.892,14.1-8.892
		c13.409,0,13.409,16.129,26.818,16.129c13.407,0,13.407-16.129,26.815-16.129c13.408,0,13.408,16.129,26.816,16.129
		c13.407,0,13.407-16.129,26.814-16.129c13.407,0,13.407,16.129,26.814,16.129c13.405,0,13.405-16.129,26.811-16.129
		c7.159,0,10.494,4.6,14.09,8.887c4.318,5.148,12.72,2.059,12.72-4.661V143H96.492V181.102z"/>
	<path style="fill:#C4A4F7;" d="M339.905,151c8.309,0,14.906-7.145,14.068-15.411C346.253,59.433,281.942,0,203.75,0
		S61.247,59.433,53.527,135.589C52.689,143.855,59.286,151,67.595,151H339.905z"/>
	<path style="fill:#C8AFF9;" d="M67.46,137c7.035-68.99,65.474-123,136.29-123s129.255,54.01,136.29,123H67.46z"/>
	<circle style="fill:#8369C4;" cx="136.25" cy="91.5" r="16.5"/>
	<circle style="fill:#8369C4;" cx="270.25" cy="106.5" r="20.5"/>
	<circle style="fill:#8369C4;" cx="213.334" cy="57.083" r="14.084"/>
	<circle style="fill:#8369C4;" cx="186.208" cy="97.458" r="8.542"/>
	<circle style="fill:#8369C4;" cx="269.75" cy="66" r="8.542"/>
	<rect x="96.492" y="151" style="fill:#6B58A8;" width="214.516" height="9.667"/>

<g transform="translate(90,80) scale(0.01,-0.01)"><path d="M4195.4,4391.7c-809.4-61.4-1624.6-385.5-2320.8-924.5c-90.2-69.1-262.8-224.4-385.5-347.2C766,2398.9,307.5,1478.3,144.5,425.3C88.9,62.8,85.1-585.5,134.9-898.2C351.7-2229.3,1122.7-3297.6,2262-3842.3c379.8-180.3,679-268.5,1089.4-316.5c416.2-49.9,786.4-24.9,1156.6,74.8c828.6,226.3,1544,828.6,1950.6,1641.8c366.3,732.7,445,1653.3,201.4,2393.7c-74.8,226.3-262.8,588.8-400.9,771c-151.5,201.4-456.5,496.8-636.8,617.6c-422,280-868.9,418.1-1365.6,420.1c-441.1,0-782.6-99.7-1147-337.6C2476.8,1012.2,2060.6,220,2089.4-518.4c5.8-178.4,15.3-220.6,59.5-306.9c109.3-211,295.4-331.8,514-331.8c166.9,0,283.9,42.2,397,143.8c132.4,118.9,195.6,266.6,216.7,514c26.9,324.2,132.3,554.3,337.6,746.1c178.4,164.9,389.4,245.5,650.2,245.5c496.8,0,953.2-297.3,1187.2-776.8c120.8-245.5,151.5-389.4,149.6-690.5c-1.9-556.2-207.1-1043.4-598.4-1423.2C4462-2927.4,3690.9-3055.9,2900.7-2751c-1049.2,404.7-1707,1528.7-1601.5,2735.1c47.9,562,205.2,1066.4,469.9,1515.2c654,1112.4,1795.3,1724.3,3034.3,1624.6c1066.4-86.3,2036.9-571.6,2750.4-1371.4c489.1-550.5,836.3-1202.6,1014.6-1910.3c78.6-314.6,113.2-537.1,134.3-913c11.5-178.4,24.9-356.7,30.7-391.3c30.7-182.2,214.8-393.2,395.1-454.6c140-46,324.1-28.8,454.6,42.2c122.7,65.2,203.3,153.4,268.5,295.4c47.9,101.7,49.9,117,47.9,431.6c-5.8,744.2-174.6,1501.8-496.8,2249.8c-491,1133.6-1398.2,2125.2-2470.4,2696.7C6101.9,4242.1,5096.8,4458.8,4195.4,4391.7z"/></g>

<g transform="rotate(10, 230, 100) translate(210,80) scale(0.01,-0.01)"><path d="M4195.4,4391.7c-809.4-61.4-1624.6-385.5-2320.8-924.5c-90.2-69.1-262.8-224.4-385.5-347.2C766,2398.9,307.5,1478.3,144.5,425.3C88.9,62.8,85.1-585.5,134.9-898.2C351.7-2229.3,1122.7-3297.6,2262-3842.3c379.8-180.3,679-268.5,1089.4-316.5c416.2-49.9,786.4-24.9,1156.6,74.8c828.6,226.3,1544,828.6,1950.6,1641.8c366.3,732.7,445,1653.3,201.4,2393.7c-74.8,226.3-262.8,588.8-400.9,771c-151.5,201.4-456.5,496.8-636.8,617.6c-422,280-868.9,418.1-1365.6,420.1c-441.1,0-782.6-99.7-1147-337.6C2476.8,1012.2,2060.6,220,2089.4-518.4c5.8-178.4,15.3-220.6,59.5-306.9c109.3-211,295.4-331.8,514-331.8c166.9,0,283.9,42.2,397,143.8c132.4,118.9,195.6,266.6,216.7,514c26.9,324.2,132.3,554.3,337.6,746.1c178.4,164.9,389.4,245.5,650.2,245.5c496.8,0,953.2-297.3,1187.2-776.8c120.8-245.5,151.5-389.4,149.6-690.5c-1.9-556.2-207.1-1043.4-598.4-1423.2C4462-2927.4,3690.9-3055.9,2900.7-2751c-1049.2,404.7-1707,1528.7-1601.5,2735.1c47.9,562,205.2,1066.4,469.9,1515.2c654,1112.4,1795.3,1724.3,3034.3,1624.6c1066.4-86.3,2036.9-571.6,2750.4-1371.4c489.1-550.5,836.3-1202.6,1014.6-1910.3c78.6-314.6,113.2-537.1,134.3-913c11.5-178.4,24.9-356.7,30.7-391.3c30.7-182.2,214.8-393.2,395.1-454.6c140-46,324.1-28.8,454.6,42.2c122.7,65.2,203.3,153.4,268.5,295.4c47.9,101.7,49.9,117,47.9,431.6c-5.8,744.2-174.6,1501.8-496.8,2249.8c-491,1133.6-1398.2,2125.2-2470.4,2696.7C6101.9,4242.1,5096.8,4458.8,4195.4,4391.7z"/></g>
</g>
</svg>
