<?xml version="1.0" encoding="utf-8"?>
<!-- Generator: Adobe Illustrator 23.0.1, SVG Export Plug-In . SVG Version: 6.00 Build 0)  -->
<svg version="1.1" id="Ebene_1" xmlns="http://www.w3.org/2000/svg" xmlns:xlink="http://www.w3.org/1999/xlink" x="0px" y="0px"
	 viewBox="0 0 600 618.4" style="enable-background:new 0 0 600 618.4;" xml:space="preserve">
<style type="text/css">
	.st0{clip-path:url(#SVGID_2_);}
	.st1{clip-path:url(#SVGID_4_);fill:#AF91E8;}
	.st2{clip-path:url(#SVGID_6_);fill:#28CDFB;}
	.st3{filter:url(#Adobe_OpacityMaskFilter);}
	.st4{fill:url(#SVGID_8_);}
	.st5{mask:url(#SVGID_7_);fill-rule:evenodd;clip-rule:evenodd;fill:#6B58A8;}
	.st6{filter:url(#Adobe_OpacityMaskFilter_1_);}
	.st7{fill:url(#SVGID_10_);}
	.st8{mask:url(#SVGID_9_);fill-rule:evenodd;clip-rule:evenodd;fill:#6B58A8;}
	.st9{filter:url(#Adobe_OpacityMaskFilter_2_);}
	.st10{fill:url(#SVGID_12_);}
	.st11{mask:url(#SVGID_11_);fill-rule:evenodd;clip-rule:evenodd;fill:#61E9FF;}
	.st12{filter:url(#Adobe_OpacityMaskFilter_3_);}
	.st13{fill:url(#SVGID_14_);}
	.st14{mask:url(#SVGID_13_);fill-rule:evenodd;clip-rule:evenodd;fill:#61E9FF;}
	.st15{filter:url(#Adobe_OpacityMaskFilter_4_);}
	.st16{fill:url(#SVGID_16_);}
	.st17{mask:url(#SVGID_15_);fill-rule:evenodd;clip-rule:evenodd;fill:#61E9FF;}
	.st18{filter:url(#Adobe_OpacityMaskFilter_5_);}
	.st19{fill:url(#SVGID_18_);}
	.st20{mask:url(#SVGID_17_);fill-rule:evenodd;clip-rule:evenodd;fill:#61E9FF;}
	.st21{filter:url(#Adobe_OpacityMaskFilter_6_);}
	.st22{fill:url(#SVGID_20_);}
	.st23{mask:url(#SVGID_19_);fill-rule:evenodd;clip-rule:evenodd;fill:#6B58A8;}
	.st24{clip-path:url(#SVGID_22_);fill:#8369C4;}
	.st25{filter:url(#Adobe_OpacityMaskFilter_7_);}
	.st26{fill:url(#SVGID_24_);}
	.st27{mask:url(#SVGID_23_);fill-rule:evenodd;clip-rule:evenodd;fill:#6B58A8;}
	.st28{filter:url(#Adobe_OpacityMaskFilter_8_);}
	.st29{fill:url(#SVGID_26_);}
	.st30{mask:url(#SVGID_25_);fill-rule:evenodd;clip-rule:evenodd;fill:#6B58A8;}
	.st31{filter:url(#Adobe_OpacityMaskFilter_9_);}
	.st32{fill:url(#SVGID_28_);}
	.st33{mask:url(#SVGID_27_);fill-rule:evenodd;clip-rule:evenodd;fill:#6B58A8;}
	.st34{filter:url(#Adobe_OpacityMaskFilter_10_);}
	.st35{fill:url(#SVGID_30_);}
	.st36{mask:url(#SVGID_29_);fill-rule:evenodd;clip-rule:evenodd;fill:#6B58A8;}
	.st37{clip-path:url(#SVGID_32_);fill:#8369C4;}
	.st38{filter:url(#Adobe_OpacityMaskFilter_11_);}
	.st39{fill:url(#SVGID_34_);}
	.st40{mask:url(#SVGID_33_);fill-rule:evenodd;clip-rule:evenodd;fill:#6B58A8;}
	.st41{filter:url(#Adobe_OpacityMaskFilter_12_);}
	.st42{fill:url(#SVGID_36_);}
	.st43{mask:url(#SVGID_35_);fill-rule:evenodd;clip-rule:evenodd;fill:#6B58A8;}
	.st44{clip-path:url(#SVGID_38_);fill:#8369C4;}
	.st45{filter:url(#Adobe_OpacityMaskFilter_13_);}
	.st46{fill:url(#SVGID_40_);}
	.st47{mask:url(#SVGID_39_);fill-rule:evenodd;clip-rule:evenodd;fill:#6B58A8;}
	.st48{clip-path:url(#SVGID_42_);fill:#28CDFB;}
	.st49{filter:url(#Adobe_OpacityMaskFilter_14_);}
	.st50{fill:url(#SVGID_44_);}
	.st51{mask:url(#SVGID_43_);fill-rule:evenodd;clip-rule:evenodd;fill:#61E9FF;}
</style>
<g>
	<g>
		<defs>
			<path id="SVGID_1_" d="M582.3,146.2L582.3,146.2L582.3,146.2c-7.2-9.6-15.9-17.5-26-23.3L362.6,11.6c-26.9-15.4-60.2-15.4-87,0.1
				L82.7,122.9c-11.1,6.4-20.8,15.4-28.2,26.3h0l0,0l-9.4,17.8c-4,10.2-6.1,20.8-6.1,31.5v222.3v0c0,31.1,16.7,60,43.6,75.5
				l192.9,111.3c10.2,5.9,21.4,9.5,33.4,10.9v0l20.1,0c12.1-1.3,23.3-5,33.5-10.8l193.7-111.4c27-15.5,43.7-44.5,43.7-75.6v0V198.5
				v0c0-12-2.5-23.7-7.6-35L582.3,146.2z"/>
		</defs>
		<clipPath id="SVGID_2_">
			<use xlink:href="#SVGID_1_"  style="overflow:visible;"/>
		</clipPath>
		<g class="st0">
			<g>
				<defs>
					<path id="SVGID_3_" d="M319.5-14.3L600,147.6v323.9L319.5,633.5L39,471.5V147.6L319.5-14.3z M433.3,238.6L433.3,238.6
						L433.3,238.6c-3.1-4.2-6.9-7.6-11.3-10.1l-83.9-48.2c-11.6-6.7-26.1-6.7-37.7,0l-83.5,48.2c-4.8,2.8-9,6.7-12.2,11.4h0l0,0
						l-4.1,7.7c-1.7,4.4-2.6,9-2.6,13.6v96.3v0c0,13.5,7.2,26,18.9,32.7l83.5,48.2c4.4,2.5,9.3,4.1,14.5,4.7v0l8.7,0
						c5.2-0.6,10.1-2.2,14.5-4.7l83.9-48.2c11.7-6.7,18.9-19.3,18.9-32.7v0v-96.2v0c0-5.2-1.1-10.3-3.3-15.2L433.3,238.6z"/>
				</defs>
				<use xlink:href="#SVGID_3_"  style="overflow:visible;fill-rule:evenodd;clip-rule:evenodd;fill:#AF91E8;"/>
				<clipPath id="SVGID_4_">
					<use xlink:href="#SVGID_3_"  style="overflow:visible;"/>
				</clipPath>
				<rect x="39" y="-14.3" class="st1" width="561" height="647.8"/>
			</g>
			<g>
				<defs>
					<path id="SVGID_5_" d="M319.5-14.3c158.3,91.4,145.1,195.8,76.4,227.7c-114.6,53.1-179.4-74.2-236.7-135.1
						C59.9-27.2-75.2,42.4,27.1,172.6c97.1,123.4,330.5,112.7,396.7,217c67,110.5-98.5,196.2-220.1,55.8
						c-73.1-84.5-164-76.2-164.7,23.7v2.4l280.5,161.9l22.9-13.2L600,471.5V147.6L319.5-14.3z"/>
				</defs>
				<use xlink:href="#SVGID_5_"  style="overflow:visible;fill-rule:evenodd;clip-rule:evenodd;fill:#28CDFB;"/>
				<clipPath id="SVGID_6_">
					<use xlink:href="#SVGID_5_"  style="overflow:visible;"/>
				</clipPath>
				<rect x="-75.2" y="-27.2" class="st2" width="675.2" height="660.6"/>
			</g>
			<defs>
				<filter id="Adobe_OpacityMaskFilter" filterUnits="userSpaceOnUse" x="146.3" y="389.6" width="293" height="129">
					<feColorMatrix  type="matrix" values="1 0 0 0 0  0 1 0 0 0  0 0 1 0 0  0 0 0 1 0"/>
				</filter>
			</defs>
			<mask maskUnits="userSpaceOnUse" x="146.3" y="389.6" width="293" height="129" id="SVGID_7_">
				<g class="st3">
					
						<linearGradient id="SVGID_8_" gradientUnits="userSpaceOnUse" x1="808.2186" y1="2280.8223" x2="137.0794" y2="1653.3567" gradientTransform="matrix(1 0 0 1 72.4263 -1277.1122)">
						<stop  offset="0" style="stop-color:#FFFFFF"/>
						<stop  offset="1" style="stop-color:#000000"/>
					</linearGradient>
					<rect x="146.3" y="389.6" class="st4" width="293" height="129"/>
				</g>
			</mask>
			<path class="st5" d="M423.8,389.6c-12.6,7.3-25.2,14.5-37.7,21.8c15.4,75.7-61.9,113.1-140.9,52.6c-33.1-22-63.8-50.4-98.9-65.1
				c19.1,9.5,38.9,25,57.5,46.5C325.3,585.9,490.9,500.1,423.8,389.6"/>
			<defs>
				<filter id="Adobe_OpacityMaskFilter_1_" filterUnits="userSpaceOnUse" x="319.5" y="-14.3" width="125" height="227.7">
					<feColorMatrix  type="matrix" values="1 0 0 0 0  0 1 0 0 0  0 0 1 0 0  0 0 0 1 0"/>
				</filter>
			</defs>
			<mask maskUnits="userSpaceOnUse" x="319.5" y="-14.3" width="125" height="227.7" id="SVGID_9_">
				<g class="st6">
					
						<linearGradient id="SVGID_10_" gradientUnits="userSpaceOnUse" x1="735.1583" y1="1815.9884" x2="182.8693" y2="1421.4683" gradientTransform="matrix(1 0 0 1 127.0857 -1373.4142)">
						<stop  offset="0" style="stop-color:#FFFFFF"/>
						<stop  offset="1" style="stop-color:#000000"/>
					</linearGradient>
					<rect x="319.5" y="-14.3" class="st7" width="125" height="227.7"/>
				</g>
			</mask>
			<path class="st8" d="M395.9,213.4c68.8-31.9,82-136.3-76.4-227.7c0,0,182.4,122.5,29.3,200.5L395.9,213.4z"/>
			<defs>
				<filter id="Adobe_OpacityMaskFilter_2_" filterUnits="userSpaceOnUse" x="-9.4" y="26.9" width="179.3" height="159.4">
					<feColorMatrix  type="matrix" values="1 0 0 0 0  0 1 0 0 0  0 0 1 0 0  0 0 0 1 0"/>
				</filter>
			</defs>
			<mask maskUnits="userSpaceOnUse" x="-9.4" y="26.9" width="179.3" height="159.4" id="SVGID_11_">
				<g class="st9">
					
						<linearGradient id="SVGID_12_" gradientUnits="userSpaceOnUse" x1="-81.302" y1="1356.656" x2="172.5623" y2="1598.8889" gradientTransform="matrix(1 0 0 1 23.3101 -1381.9436)">
						<stop  offset="0" style="stop-color:#FFFFFF"/>
						<stop  offset="1" style="stop-color:#000000"/>
					</linearGradient>
					<rect x="-9.4" y="26.9" class="st10" width="179.3" height="159.4"/>
				</g>
			</mask>
			<path class="st11" d="M36.7,183.3C-62.2,57.6,60.4-11.6,158.3,78.7c3.5,3.2,6.9,6.6,10.3,10.2c0.4,0.4,0.8,0.9,1.3,1.4
				c-3.6-4.2-7.2-8.3-10.8-12.1C59.9-27.2-75.2,42.4,27.1,172.6c3.8,4.8,7.7,9.4,11.9,13.8v-0.1C38.2,185.3,37.4,184.3,36.7,183.3"
				/>
			<defs>
				<filter id="Adobe_OpacityMaskFilter_3_" filterUnits="userSpaceOnUse" x="230.7" y="58.2" width="223.4" height="178.6">
					<feColorMatrix  type="matrix" values="1 0 0 0 0  0 1 0 0 0  0 0 1 0 0  0 0 0 1 0"/>
				</filter>
			</defs>
			<mask maskUnits="userSpaceOnUse" x="230.7" y="58.2" width="223.4" height="178.6" id="SVGID_13_">
				<g class="st12">
					
						<linearGradient id="SVGID_14_" gradientUnits="userSpaceOnUse" x1="166.7503" y1="1451.7339" x2="430.0901" y2="1664.2375" gradientTransform="matrix(1 0 0 1 99.0567 -1366.0413)">
						<stop  offset="0" style="stop-color:#FFFFFF"/>
						<stop  offset="1" style="stop-color:#000000"/>
					</linearGradient>
					<rect x="230.7" y="58.2" class="st13" width="223.4" height="178.6"/>
				</g>
			</mask>
			<path class="st14" d="M395.9,213.4c-51.1,23.7-92.3,11.5-127.3-14.7c-13.5-10.1-26-22.2-37.9-35.1c11.2,13,23,25.5,35.7,36.4
				c37.5,32.4,82.1,50.5,139,24.1c1.6-0.8,3.3-1.6,4.8-2.4c49.8-26.6,66.4-93.4,0.1-163.5C467.2,126.5,446.7,189.8,395.9,213.4"/>
			<defs>
				<filter id="Adobe_OpacityMaskFilter_4_" filterUnits="userSpaceOnUse" x="39" y="387.6" width="163.5" height="89.5">
					<feColorMatrix  type="matrix" values="1 0 0 0 0  0 1 0 0 0  0 0 1 0 0  0 0 0 1 0"/>
				</filter>
			</defs>
			<mask maskUnits="userSpaceOnUse" x="39" y="387.6" width="163.5" height="89.5" id="SVGID_15_">
				<g class="st15">
					
						<linearGradient id="SVGID_16_" gradientUnits="userSpaceOnUse" x1="-41.124" y1="1586.9048" x2="140.2257" y2="1786.3196" gradientTransform="matrix(1 0 0 1 38.5855 -1290.2289)">
						<stop  offset="0" style="stop-color:#FFFFFF"/>
						<stop  offset="1" style="stop-color:#000000"/>
					</linearGradient>
					<rect x="39" y="387.6" class="st16" width="163.5" height="89.5"/>
				</g>
			</mask>
			<path class="st17" d="M202.6,444c-18.3-20.8-37.6-35.8-56.3-45.1C90.2,371,39.6,394.6,39,469.1v2.4l9.6,5.5
				C51.1,370.8,143.7,388.5,202.6,444"/>
			<defs>
				<filter id="Adobe_OpacityMaskFilter_5_" filterUnits="userSpaceOnUse" x="210.6" y="379.7" width="238.6" height="148.5">
					<feColorMatrix  type="matrix" values="1 0 0 0 0  0 1 0 0 0  0 0 1 0 0  0 0 0 1 0"/>
				</filter>
			</defs>
			<mask maskUnits="userSpaceOnUse" x="210.6" y="379.7" width="238.6" height="148.5" id="SVGID_17_">
				<g class="st18">
					
						<linearGradient id="SVGID_18_" gradientUnits="userSpaceOnUse" x1="118.2963" y1="1631.3258" x2="435.1029" y2="1889.0245" gradientTransform="matrix(1 0 0 1 92.7317 -1274.0791)">
						<stop  offset="0" style="stop-color:#FFFFFF"/>
						<stop  offset="1" style="stop-color:#000000"/>
					</linearGradient>
					<rect x="210.6" y="379.7" class="st19" width="238.6" height="148.5"/>
				</g>
			</mask>
			<path class="st20" d="M423.8,389.6c65.8,108.4-92.4,193-213.2,63.4c46.2,55.5,103.8,72.3,133.8,74.7
				c78.6,6.4,133.2-54.4,88.9-127.4c-2.5-4-5.3-7.8-8.3-11.4c-2.6-3.2-5.4-6.2-8.3-9.2C419.3,382.9,421.7,386.2,423.8,389.6"/>
			<defs>
				<filter id="Adobe_OpacityMaskFilter_6_" filterUnits="userSpaceOnUse" x="81.5" y="274.8" width="90.7" height="90.7">
					<feColorMatrix  type="matrix" values="1 0 0 0 0  0 1 0 0 0  0 0 1 0 0  0 0 0 1 0"/>
				</filter>
			</defs>
			<mask maskUnits="userSpaceOnUse" x="81.5" y="274.8" width="90.7" height="90.7" id="SVGID_19_">
				<g class="st21">
					
						<linearGradient id="SVGID_20_" gradientUnits="userSpaceOnUse" x1="-28.2817" y1="1528.1155" x2="125.8112" y2="1703.6331" gradientTransform="matrix(1 0 0 1 51.9758 -1325.3922)">
						<stop  offset="0" style="stop-color:#FFFFFF"/>
						<stop  offset="1" style="stop-color:#000000"/>
					</linearGradient>
					<rect x="81.5" y="274.8" class="st22" width="90.7" height="90.7"/>
				</g>
			</mask>
			<path class="st23" d="M126.8,274.8c25.1,0,45.4,20.3,45.4,45.4c0,25.1-20.3,45.4-45.4,45.4c-25.1,0-45.4-20.3-45.4-45.4
				C81.5,295.1,101.8,274.8,126.8,274.8"/>
			<g>
				<defs>
					<path id="SVGID_21_" d="M121.8,268.3c23.9,0,43.2,19.3,43.2,43.2c0,23.9-19.3,43.2-43.2,43.2c-23.9,0-43.2-19.3-43.2-43.2
						C78.6,287.6,98,268.3,121.8,268.3"/>
				</defs>
				<use xlink:href="#SVGID_21_"  style="overflow:visible;fill-rule:evenodd;clip-rule:evenodd;fill:#8369C4;"/>
				<clipPath id="SVGID_22_">
					<use xlink:href="#SVGID_21_"  style="overflow:visible;"/>
				</clipPath>
				<rect x="78.6" y="268.3" class="st24" width="86.4" height="86.4"/>
			</g>
			<defs>
				<filter id="Adobe_OpacityMaskFilter_7_" filterUnits="userSpaceOnUse" x="78.6" y="268.3" width="78.1" height="72.3">
					<feColorMatrix  type="matrix" values="1 0 0 0 0  0 1 0 0 0  0 0 1 0 0  0 0 0 1 0"/>
				</filter>
			</defs>
			<mask maskUnits="userSpaceOnUse" x="78.6" y="268.3" width="78.1" height="72.3" id="SVGID_23_">
				<g class="st25">
					
						<linearGradient id="SVGID_24_" gradientUnits="userSpaceOnUse" x1="-15.5608" y1="1549.2363" x2="96.982" y2="1670.463" gradientTransform="matrix(1 0 0 1 51.0738 -1333.262)">
						<stop  offset="0" style="stop-color:#FFFFFF"/>
						<stop  offset="1" style="stop-color:#000000"/>
					</linearGradient>
					<rect x="78.6" y="268.3" class="st26" width="78.1" height="72.3"/>
				</g>
			</mask>
			<path class="st27" d="M156.7,286c-7.9-10.8-20.6-17.8-34.9-17.8c-23.9,0-43.2,19.3-43.2,43.2c0,6.3,1.3,12.2,3.7,17.6
				c1.9,4.3,4.5,8.2,7.6,11.6C61.8,296.5,120.9,249.1,156.7,286"/>
			<defs>
				<filter id="Adobe_OpacityMaskFilter_8_" filterUnits="userSpaceOnUse" x="185.9" y="109.7" width="88" height="89">
					<feColorMatrix  type="matrix" values="1 0 0 0 0  0 1 0 0 0  0 0 1 0 0  0 0 0 1 0"/>
				</filter>
			</defs>
			<mask maskUnits="userSpaceOnUse" x="185.9" y="109.7" width="88" height="89" id="SVGID_25_">
				<g class="st28">
					
						<linearGradient id="SVGID_26_" gradientUnits="userSpaceOnUse" x1="343.4364" y1="1694.5361" x2="121.7734" y2="1513.2821" gradientTransform="matrix(1 0 0 1 84.9249 -1378.0417)">
						<stop  offset="0" style="stop-color:#FFFFFF"/>
						<stop  offset="1" style="stop-color:#000000"/>
					</linearGradient>
					<rect x="185.9" y="109.7" class="st29" width="88" height="89"/>
				</g>
			</mask>
			<path class="st30" d="M273.9,195.6c-28.1-16.5-88-85.9-88-85.9c14,17.4,28.8,36.4,44.8,53.9c11.9,12.9,24.4,25.1,37.9,35.1
				C270.3,197.7,272.1,196.7,273.9,195.6"/>
			<defs>
				<filter id="Adobe_OpacityMaskFilter_9_" filterUnits="userSpaceOnUse" x="39" y="186.4" width="159" height="95.9">
					<feColorMatrix  type="matrix" values="1 0 0 0 0  0 1 0 0 0  0 0 1 0 0  0 0 0 1 0"/>
				</filter>
			</defs>
			<mask maskUnits="userSpaceOnUse" x="39" y="186.4" width="159" height="95.9" id="SVGID_27_">
				<g class="st31">
					
						<linearGradient id="SVGID_28_" gradientUnits="userSpaceOnUse" x1="316.638" y1="1797.5623" x2="40.9371" y2="1551.1143" gradientTransform="matrix(1 0 0 1 38.5855 -1351.691)">
						<stop  offset="0" style="stop-color:#FFFFFF"/>
						<stop  offset="1" style="stop-color:#000000"/>
					</linearGradient>
					<rect x="39" y="186.4" class="st32" width="159" height="95.9"/>
				</g>
			</mask>
			<path class="st33" d="M39,186.4c0,0,51.5,59.2,159,95.9v-7C138.2,254.4,79.6,229.3,39,186.4"/>
			<defs>
				<filter id="Adobe_OpacityMaskFilter_10_" filterUnits="userSpaceOnUse" x="326.4" y="77" width="44.8" height="44.8">
					<feColorMatrix  type="matrix" values="1 0 0 0 0  0 1 0 0 0  0 0 1 0 0  0 0 0 1 0"/>
				</filter>
			</defs>
			<mask maskUnits="userSpaceOnUse" x="326.4" y="77" width="44.8" height="44.8" id="SVGID_29_">
				<g class="st34">
					
						<linearGradient id="SVGID_30_" gradientUnits="userSpaceOnUse" x1="168.656" y1="1443.705" x2="244.6885" y2="1530.3231" gradientTransform="matrix(1 0 0 1 129.2649 -1402.3273)">
						<stop  offset="0" style="stop-color:#FFFFFF"/>
						<stop  offset="1" style="stop-color:#000000"/>
					</linearGradient>
					<rect x="326.4" y="77" class="st35" width="44.8" height="44.8"/>
				</g>
			</mask>
			<path class="st36" d="M348.8,77c12.4,0,22.4,10,22.4,22.4c0,12.4-10,22.4-22.4,22.4c-12.4,0-22.4-10-22.4-22.4
				C326.4,87,336.4,77,348.8,77"/>
			<g>
				<defs>
					<path id="SVGID_31_" d="M346.3,73.7c11.8,0,21.3,9.5,21.3,21.3c0,11.8-9.5,21.3-21.3,21.3c-11.8,0-21.3-9.5-21.3-21.3
						C325,83.3,334.6,73.7,346.3,73.7"/>
				</defs>
				<use xlink:href="#SVGID_31_"  style="overflow:visible;fill-rule:evenodd;clip-rule:evenodd;fill:#8369C4;"/>
				<clipPath id="SVGID_32_">
					<use xlink:href="#SVGID_31_"  style="overflow:visible;"/>
				</clipPath>
				<rect x="325" y="73.7" class="st37" width="42.6" height="42.6"/>
			</g>
			<defs>
				<filter id="Adobe_OpacityMaskFilter_11_" filterUnits="userSpaceOnUse" x="325" y="73.7" width="38.6" height="35.7">
					<feColorMatrix  type="matrix" values="1 0 0 0 0  0 1 0 0 0  0 0 1 0 0  0 0 0 1 0"/>
				</filter>
			</defs>
			<mask maskUnits="userSpaceOnUse" x="325" y="73.7" width="38.6" height="35.7" id="SVGID_33_">
				<g class="st38">
					
						<linearGradient id="SVGID_34_" gradientUnits="userSpaceOnUse" x1="174.9346" y1="1454.1189" x2="230.4613" y2="1513.9558" gradientTransform="matrix(1 0 0 1 128.8199 -1406.2113)">
						<stop  offset="0" style="stop-color:#FFFFFF"/>
						<stop  offset="1" style="stop-color:#000000"/>
					</linearGradient>
					<rect x="325" y="73.7" class="st39" width="38.6" height="35.7"/>
				</g>
			</mask>
			<path class="st40" d="M363.6,82.5c-3.9-5.3-10.2-8.8-17.2-8.8c-11.8,0-21.3,9.5-21.3,21.3c0,3.1,0.7,6,1.8,8.7
				c0.9,2.1,2.2,4,3.7,5.7C316.7,87.6,345.9,64.3,363.6,82.5"/>
			<defs>
				<filter id="Adobe_OpacityMaskFilter_12_" filterUnits="userSpaceOnUse" x="213.3" y="64.7" width="67.3" height="67.3">
					<feColorMatrix  type="matrix" values="1 0 0 0 0  0 1 0 0 0  0 0 1 0 0  0 0 0 1 0"/>
				</filter>
			</defs>
			<mask maskUnits="userSpaceOnUse" x="213.3" y="64.7" width="67.3" height="67.3" id="SVGID_35_">
				<g class="st41">
					
						<linearGradient id="SVGID_36_" gradientUnits="userSpaceOnUse" x1="76.8977" y1="1410.3278" x2="191.152" y2="1540.4919" gradientTransform="matrix(1 0 0 1 93.5736 -1399.0804)">
						<stop  offset="0" style="stop-color:#FFFFFF"/>
						<stop  offset="1" style="stop-color:#000000"/>
					</linearGradient>
					<rect x="213.3" y="64.7" class="st42" width="67.3" height="67.3"/>
				</g>
			</mask>
			<path class="st43" d="M247,64.7c18.6,0,33.7,15.1,33.7,33.7c0,18.6-15.1,33.7-33.7,33.7c-18.6,0-33.7-15.1-33.7-33.7
				C213.3,79.8,228.4,64.7,247,64.7"/>
			<g>
				<defs>
					<path id="SVGID_37_" d="M243.2,59.9c17.7,0,32,14.3,32,32c0,17.7-14.3,32-32,32c-17.7,0-32-14.3-32-32
						C211.2,74.2,225.5,59.9,243.2,59.9"/>
				</defs>
				<use xlink:href="#SVGID_37_"  style="overflow:visible;fill-rule:evenodd;clip-rule:evenodd;fill:#8369C4;"/>
				<clipPath id="SVGID_38_">
					<use xlink:href="#SVGID_37_"  style="overflow:visible;"/>
				</clipPath>
				<rect x="211.2" y="59.9" class="st44" width="64.1" height="64.1"/>
			</g>
			<defs>
				<filter id="Adobe_OpacityMaskFilter_13_" filterUnits="userSpaceOnUse" x="211.2" y="59.9" width="57.9" height="53.7">
					<feColorMatrix  type="matrix" values="1 0 0 0 0  0 1 0 0 0  0 0 1 0 0  0 0 0 1 0"/>
				</filter>
			</defs>
			<mask maskUnits="userSpaceOnUse" x="211.2" y="59.9" width="57.9" height="53.7" id="SVGID_39_">
				<g class="st45">
					
						<linearGradient id="SVGID_40_" gradientUnits="userSpaceOnUse" x1="86.3146" y1="1425.9705" x2="169.795" y2="1515.9163" gradientTransform="matrix(1 0 0 1 92.9049 -1404.9178)">
						<stop  offset="0" style="stop-color:#FFFFFF"/>
						<stop  offset="1" style="stop-color:#000000"/>
					</linearGradient>
					<rect x="211.2" y="59.9" class="st46" width="57.9" height="53.7"/>
				</g>
			</mask>
			<path class="st47" d="M269.1,73c-5.8-8-15.3-13.2-25.9-13.2c-17.7,0-32,14.3-32,32c0,4.6,1,9.1,2.8,13c1.4,3.2,3.3,6.1,5.6,8.6
				C198.7,80.8,242.5,45.7,269.1,73"/>
		</g>
	</g>
	<g>
		<g>
			<defs>
				<path id="SVGID_41_" d="M405.3,224.1C290.7,277.2,225.9,149.9,168.5,89C69.2-16.5-65.8,53.2,36.5,183.3
					C133.6,306.7,367,296,433.2,400.3"/>
			</defs>
			<use xlink:href="#SVGID_41_"  style="overflow:visible;fill-rule:evenodd;clip-rule:evenodd;fill:#28CDFB;"/>
			<clipPath id="SVGID_42_">
				<use xlink:href="#SVGID_41_"  style="overflow:visible;"/>
			</clipPath>
			<polyline class="st48" points="609.4,644.2 609.4,-16.5 -65.8,-16.5 -65.8,644.2 			"/>
		</g>
		<defs>
			<filter id="Adobe_OpacityMaskFilter_14_" filterUnits="userSpaceOnUse" x="0" y="37.6" width="179.3" height="159.4">
				<feColorMatrix  type="matrix" values="1 0 0 0 0  0 1 0 0 0  0 0 1 0 0  0 0 0 1 0"/>
			</filter>
		</defs>
		<mask maskUnits="userSpaceOnUse" x="0" y="37.6" width="179.3" height="159.4" id="SVGID_43_">
			<g class="st49">
				
					<linearGradient id="SVGID_44_" gradientUnits="userSpaceOnUse" x1="-71.9166" y1="1367.3669" x2="181.9477" y2="1609.5999" gradientTransform="matrix(1 0 0 1 23.3101 -1381.9436)">
					<stop  offset="0" style="stop-color:#FFFFFF"/>
					<stop  offset="1" style="stop-color:#000000"/>
				</linearGradient>
				<rect x="0" y="37.6" class="st50" width="179.3" height="159.4"/>
			</g>
		</mask>
		<path class="st51" d="M46,194C-52.8,68.3,69.8-0.9,167.7,89.5c3.5,3.2,6.9,6.6,10.3,10.2c0.4,0.4,0.8,0.9,1.3,1.4
			c-3.6-4.2-7.2-8.3-10.8-12.1C69.2-16.5-65.8,53.2,36.5,183.3c3.8,4.8,7.7,9.4,11.9,13.8V197C47.6,196,46.8,195,46,194"/>
	</g>
</g>
</svg>
