<svg xmlns="http://www.w3.org/2000/svg" xmlns:xlink="http://www.w3.org/1999/xlink" version="1.1" id="Ebene_1" x="0px" y="0px" viewBox="0 0 76.2 84" style="enable-background:new 0 0 76.2 84;" xml:space="preserve">
<g>
	<path d="M62,60.5c2.4-1.4,3.9-4,3.9-6.7V30.5c0-0.6-0.1-1.1-0.2-1.7L45.4,40.5c-4.5,3.2-5.5,6.2-5.6,9.8v22.6   c0.7-0.2,1.3-0.4,1.9-0.7L62,60.5z" style="&#10;    fill: #2a506f;&#10;"/>
	<path d="M75.5,23.1l-6.6,3.8c0,0.1,0.1,0.2,0.1,0.3c0.3,1.1,0.5,2.2,0.5,3.3v23.2c0,4.1-2.2,7.8-5.7,9.9L43.6,75.2   c-1,0.6-2.2,1-3.5,1.3c-0.1,0-0.1,0-0.2,0V84c1.5-0.2,2.8-0.7,4.1-1.4l26.3-15.1c3.7-2.1,5.9-6,5.9-10.3V27   C76.2,25.7,75.9,24.4,75.5,23.1z" style="&#10;    fill: #2a506f;&#10;"/>
	<path d="M62.2,23.7L41.9,12.1c-2.4-1.4-5.4-1.4-7.8,0L14,23.7c-0.7,0.4-1.4,1-2,1.7l20.5,11.8c2.6,1.6,4.4,3.3,5.6,5.3   c1.2-2,3-3.6,5.5-5.3l20.5-11.8C63.5,24.7,62.9,24.2,62.2,23.7z" style="&#10;    fill: #2a506f;&#10;"/>
	<path d="M12.2,20.6L32.4,9c3.5-2,7.9-2,11.4,0L64,20.6c1.2,0.7,2.2,1.6,3.2,2.8c0.1,0.1,0.1,0.1,0.1,0.2l6.5-3.7   c-1-1.3-2.1-2.3-3.5-3.1L43.9,1.6c-3.6-2.1-8.1-2.1-11.8,0L5.9,16.7c-1.4,0.8-2.6,1.9-3.5,3.2l6.5,3.7c0-0.1,0.1-0.1,0.1-0.2   C9.9,22.3,11,21.3,12.2,20.6z" style="&#10;    fill: #2a506f;&#10;"/>
	<path d="M32.6,75.2L12.5,63.6c-3.5-2-5.7-5.8-5.7-9.9V30.5c0-1,0.2-2.1,0.5-3.2c0-0.1,0.1-0.2,0.1-0.3l-6.7-3.9   C0.3,24.3,0,25.6,0,26.9v30.2c0,4.2,2.3,8.2,5.9,10.3l26.2,15.2c1.2,0.7,2.6,1.2,4.1,1.4v-7.5l0,0C34.9,76.2,33.7,75.8,32.6,75.2z" style="&#10;    fill: #2a506f;&#10;"/>
	<path d="M10.4,53.7c0,2.8,1.5,5.4,3.9,6.7L34.5,72c0.5,0.3,1.1,0.5,1.7,0.7V50.2c-0.1-3.5-1-6.6-5.6-9.8l-20-11.5   c-0.1,0.5-0.2,1.1-0.2,1.6L10.4,53.7z" style="&#10;    fill: #2a506f;&#10;"/>
</g>
</svg>
