<svg version="1.1" baseProfile="full" width="645.3" height="602.0" viewbox="0 0 645.25 602" xmlns="http://www.w3.org/2000/svg" xmlns:xlink="http://www.w3.org/1999/xlink" xmlns:ev="http://www.w3.org/2001/xml-events">
	<desc >#direction: down
	#ranker: tight-tree
	#padding: 16
	#spacing: 40
	
	[&lt;actor&gt;User] HTTP -&gt;[jel.ly.fish]
	[jel.ly.fish]-&gt;[UI Container]
	[UI Container] WebSocket/AJAX &lt;-&gt;[api.ly.fish]
	[api.ly.fish]&lt;-&gt;[API Container]
	[API Container]-&gt;[Redis]
	[API Container]&lt;-&gt;[Postgres]
	[Worker]-&gt;[Postgres]
	[Worker]-&gt;[Redis]
	[Worker]-&gt; HTTP [External Services]
	[External Services] Webhook -&gt;[api.ly.fish]
	</desc>
	<g stroke-width="1.0" text-align="left" font="12pt Helvetica, Arial, sans-serif" font-size="12pt" font-family="Helvetica" font-weight="bold" font-style="normal">
		<g transform="translate(0.5, 0.5)" font-family="Helvetica" font-size="12pt" font-weight="bold" font-style="normal" stroke-width="3.0" stroke-linejoin="round" stroke-linecap="round" stroke="#33322E">
			<g stroke="transparent" fill="transparent">
				<rect x="0.0" y="0.0" height="602.0" width="645.3" stroke="none"></rect>
			</g>
			<g transform="translate(103.5, 16)" fill="#33322E">
				<g transform="translate(20, 20)" fill="#33322E" font-family="Helvetica" font-size="12pt" font-weight="normal" font-style="normal">
					<text x="81.5" y="123.0" stroke="none">HTTP</text>
					<path d="M65.5 95.0 L65.5 115 L65.5 128.33333333333334 L65.5 128.3 " fill="none"></path>
					<path d="M60.2 121.7 L65.5 128.3 L70.8 121.7 L65.5 135.0 Z"></path>
					<path d="M65.5 182.0 L65.5 202 L65.5 215.33333333333334 L65.5 215.3 " fill="none"></path>
					<path d="M60.2 208.7 L65.5 215.3 L70.8 208.7 L65.5 222.0 Z"></path>
					<text x="-87.5" y="297.0" stroke="none">WebSocket/AJAX</text>
					<path d="M65.5 275.7 L65.5 289 L103.22890897188107 306.230525357237 L103.2 306.2 " fill="none"></path>
					<path d="M94.9 308.3 L103.2 306.2 L99.4 298.6 L109.3 309.0 Z"></path>
					<path d="M70.8 282.3 L65.5 275.7 L60.2 282.3 L65.5 269.0 Z"></path>
					<path d="M160.8 362.7 L160.75 376 L160.75 389.3333333333333 L160.8 389.3 " fill="none"></path>
					<path d="M155.4 382.7 L160.8 389.3 L166.1 382.7 L160.8 396.0 Z"></path>
					<path d="M166.1 369.3 L160.8 362.7 L155.4 369.3 L160.8 356.0 Z"></path>
					<path d="M160.8 443.0 L160.75 463 L184.01382320749394 479.1916209524158 L184.0 479.2 " fill="none"></path>
					<path d="M175.5 479.8 L184.0 479.2 L181.6 471.0 L189.5 483.0 Z"></path>
					<path d="M237.8 432.4 L421 463 L436.79437576680505 478.353192086168 L436.8 478.4 " fill="none"></path>
					<path d="M428.3 477.5 L436.8 478.4 L435.7 469.9 L441.6 483.0 Z"></path>
					<path d="M245.3 428.2 L237.8 432.4 L243.5 438.7 L231.3 431.3 Z"></path>
					<path d="M425.5 177.0 L485.75 202 L485.75 245.5 L485.75 245.5 L485.75 289 L485.75 289 L485.75 332.5 L485.75 332.5 L485.75 376 L485.75 376 L485.75 419.5 L485.75 419.5 L485.75 463 L485.75 463 L479.3394857786922 476.9428684313444 L479.3 476.9 " fill="none"></path>
					<path d="M477.3 468.7 L479.3 476.9 L487.0 473.1 L476.6 483.0 Z"></path>
					<path d="M381.0 182.0 L381 202 L381 245.5 L381 245.5 L381 289 L381 289 L381 332.5 L381 332.5 L381 376 L381 376 L381 419.5 L381 419.5 L381 463 L381 463 L268.1767974896069 494.1113109933572 L268.2 494.1 " fill="none"></path>
					<path d="M273.2 487.2 L268.2 494.1 L276.0 497.5 L261.8 495.9 Z"></path>
					<text x="197.0" y="206.0" stroke="none">HTTP</text>
					<path d="M336.5 174.0 L256 202 L256 215.33333333333334 L256.0 215.3 " fill="none"></path>
					<path d="M250.7 208.7 L256.0 215.3 L261.3 208.7 L256.0 222.0 Z"></path>
					<text x="272.0" y="297.0" stroke="none">Webhook</text>
					<path d="M256.0 269.0 L256 289 L218.27109102811895 306.230525357237 L218.3 306.2 " fill="none"></path>
					<path d="M222.1 298.6 L218.3 306.2 L226.6 308.3 L212.2 309.0 Z"></path>
					<g data-name="User">
						<g fill="#eee8d5" stroke="#33322E" data-name="User">
							<circle r="8.0" cx="65.5" cy="24.0" data-name="User"></circle>
							<path d="M65.5 32.0 L65.5 48.0" fill="none" data-name="User"></path>
							<path d="M57.5 40.0 L73.5 40.0" fill="none" data-name="User"></path>
							<path d="M57.5 56.0 L65.5 48.0 L73.5 56.0" fill="none" data-name="User"></path>
						</g>
						<g transform="translate(31, 48)" font-family="Helvetica" font-size="12pt" font-weight="normal" font-style="normal" data-name="User">
							<g transform="translate(16, 16)" fill="#33322E" text-align="center" data-name="User">
								<text x="18.5" y="13.5" stroke="none" text-anchor="middle" data-name="User">User</text>
								
							</g>
						</g>
					</g>
					<g data-name="jel.ly.fish">
						<g fill="#eee8d5" stroke="#33322E" data-name="jel.ly.fish">
							<rect x="15.0" y="135.0" height="47.0" width="101.0" data-name="jel.ly.fish"></rect>
						</g>
						<g transform="translate(15, 135)" font-family="Helvetica" font-size="12pt" font-weight="bold" font-style="normal" data-name="jel.ly.fish">
							<g transform="translate(16, 16)" fill="#33322E" text-align="center" data-name="jel.ly.fish">
								<text x="34.5" y="13.5" stroke="none" text-anchor="middle" data-name="jel.ly.fish">jel.ly.fish</text>
								
							</g>
						</g>
					</g>
					<g data-name="UI Container">
						<g fill="#eee8d5" stroke="#33322E" data-name="UI Container">
							<rect x="0.0" y="222.0" height="47.0" width="131.0" data-name="UI Container"></rect>
						</g>
						<g transform="translate(0, 222)" font-family="Helvetica" font-size="12pt" font-weight="bold" font-style="normal" data-name="UI Container">
							<g transform="translate(16, 16)" fill="#33322E" text-align="center" data-name="UI Container">
								<text x="49.5" y="13.5" stroke="none" text-anchor="middle" data-name="UI Container">UI Container</text>
								
							</g>
						</g>
					</g>
					<g data-name="api.ly.fish">
						<g fill="#eee8d5" stroke="#33322E" data-name="api.ly.fish">
							<rect x="107.0" y="309.0" height="47.0" width="107.0" data-name="api.ly.fish"></rect>
						</g>
						<g transform="translate(107, 309)" font-family="Helvetica" font-size="12pt" font-weight="bold" font-style="normal" data-name="api.ly.fish">
							<g transform="translate(16, 16)" fill="#33322E" text-align="center" data-name="api.ly.fish">
								<text x="37.5" y="13.5" stroke="none" text-anchor="middle" data-name="api.ly.fish">api.ly.fish</text>
								
							</g>
						</g>
					</g>
					<g data-name="API Container">
						<g fill="#eee8d5" stroke="#33322E" data-name="API Container">
							<rect x="90.0" y="396.0" height="47.0" width="141.0" data-name="API Container"></rect>
						</g>
						<g transform="translate(90, 396)" font-family="Helvetica" font-size="12pt" font-weight="bold" font-style="normal" data-name="API Container">
							<g transform="translate(16, 16)" fill="#33322E" text-align="center" data-name="API Container">
								<text x="54.5" y="13.5" stroke="none" text-anchor="middle" data-name="API Container">API Container</text>
								
							</g>
						</g>
					</g>
					<g data-name="Redis">
						<g fill="#eee8d5" stroke="#33322E" data-name="Redis">
							<rect x="185.0" y="483.0" height="47.0" width="77.0" data-name="Redis"></rect>
						</g>
						<g transform="translate(185, 483)" font-family="Helvetica" font-size="12pt" font-weight="bold" font-style="normal" data-name="Redis">
							<g transform="translate(16, 16)" fill="#33322E" text-align="center" data-name="Redis">
								<text x="22.5" y="13.5" stroke="none" text-anchor="middle" data-name="Redis">Redis</text>
								
							</g>
						</g>
					</g>
					<g data-name="Postgres">
						<g fill="#eee8d5" stroke="#33322E" data-name="Postgres">
							<rect x="415.0" y="483.0" height="47.0" width="102.0" data-name="Postgres"></rect>
						</g>
						<g transform="translate(415, 483)" font-family="Helvetica" font-size="12pt" font-weight="bold" font-style="normal" data-name="Postgres">
							<g transform="translate(16, 16)" fill="#33322E" text-align="center" data-name="Postgres">
								<text x="35.0" y="13.5" stroke="none" text-anchor="middle" data-name="Postgres">Postgres</text>
								
							</g>
						</g>
					</g>
					<g data-name="Worker">
						<g fill="#eee8d5" stroke="#33322E" data-name="Worker">
							<rect x="337.0" y="135.0" height="47.0" width="89.0" data-name="Worker"></rect>
						</g>
						<g transform="translate(337, 135)" font-family="Helvetica" font-size="12pt" font-weight="bold" font-style="normal" data-name="Worker">
							<g transform="translate(16, 16)" fill="#33322E" text-align="center" data-name="Worker">
								<text x="28.5" y="13.5" stroke="none" text-anchor="middle" data-name="Worker">Worker</text>
								
							</g>
						</g>
					</g>
					<g data-name="External Services">
						<g fill="#eee8d5" stroke="#33322E" data-name="External Services">
							<rect x="171.0" y="222.0" height="47.0" width="170.0" data-name="External Services"></rect>
						</g>
						<g transform="translate(171, 222)" font-family="Helvetica" font-size="12pt" font-weight="bold" font-style="normal" data-name="External Services">
							<g transform="translate(16, 16)" fill="#33322E" text-align="center" data-name="External Services">
								<text x="69.0" y="13.5" stroke="none" text-anchor="middle" data-name="External Services">External Services</text>
								
							</g>
						</g>
					</g>
				</g>
			</g>
		</g>
	</g>
</svg>
